# xmcd CD database file
#
# Track frame offsets:
#	150
#	13934
#	26980
#	37245
#	49677
#	60576
#	72259
#	89236
#	103605
#	117532
#	128092
#	140776
#	150444
#	160945
#	176224
#	190517
#	205172
#	220300
#	233437
#	246412
#	257642
#	269415
#	286263
#	298080
#	311140
#	325803
#	336542
#
# Disc length: 4649 seconds
#
# Revision: 0
# Processed by: cddbd v1.5.1PL2 Copyright (c) Steve Scherf et al.
# Submitted via: CDex 1.51
#
DISCID=ae12271b
DTITLE=Dave Brubeck - Time Was - Lyon's Busy -
DYEAR=1900
DGENRE=Jazz
TTITLE0=The Way You Look Tonight
TTITLE1=September in the Rain
TTITLE2=Prelude
TTITLE3=Fugue on Bop Themes
TTITLE4=Let's Fall in Love
TTITLE5=I Didn't Know What Time It Was
TTITLE6=Squeeze Me
TTITLE7=Too Marvelous for Words
TTITLE8=How High the Moon
TTITLE9=Heart and Soul
TTITLE10=Always
TTITLE11=Avalon
TTITLE12=Perfidia
TTITLE13=Crazy Chris
TTITLE14=A Foggy Day
TTITLE15=Lyon's Busy
TTITLE16=Somebody Loves Me
TTITLE17=At a Perfume Counter
TTITLE18=Mam'selle
TTITLE19=Me and My Shadow
TTITLE20=Frenesi
TTITLE21=Look for the Silver Lining
TTITLE22=My Romance
TTITLE23=I May Be Wrong
TTITLE24=Just One of  Those Things
TTITLE25=Lulu's Back in Town
TTITLE26=On a Little Street in Singapore
EXTD=
EXTT0=
EXTT1=
EXTT2=
EXTT3=
EXTT4=
EXTT5=
EXTT6=
EXTT7=
EXTT8=
EXTT9=
EXTT10=
EXTT11=
EXTT12=
EXTT13=
EXTT14=
EXTT15=
EXTT16=
EXTT17=
EXTT18=
EXTT19=
EXTT20=
EXTT21=
EXTT22=
EXTT23=
EXTT24=
EXTT25=
EXTT26=
PLAYORDER=
